<?xml version="1.0" encoding="UTF-8"?>
<svg width="14px" height="17px" viewBox="0 0 14 17" version="1.1" xmlns="http://www.w3.org/2000/svg" xmlns:xlink="http://www.w3.org/1999/xlink">
    <!-- Generator: Sketch 57.1 (83088) - https://sketch.com -->
    <title>alert_on</title>
    <desc>Created with Sketch.</desc>
    <g id="Page-1" stroke="none" stroke-width="1" fill="none" fill-rule="evenodd">
        <g id="alert_on" fill="#ED1D24" fill-rule="nonzero">
            <path d="M6.00611433,1.62421001 C6.00207532,1.5888123 6,1.55281824 6,1.51633947 C6,0.996542059 6.42137906,0.575163 6.94117647,0.575163 L7.05882353,0.575163 C7.57862094,0.575163 8,0.996542059 8,1.51633947 C8,1.55281824 7.99792468,1.5888123 7.99388567,1.62421001 C9.8357779,2.03016692 11.2869645,3.54197154 11.5610645,5.47679483 L12.3333333,10.9281042 L12.5882353,10.9281042 C13.3679314,10.9281042 14,11.5601728 14,12.3398689 C14,13.0709282 13.4443277,13.6722033 12.7323047,13.7443727 L12.7333333,13.7516336 L1.26666667,13.7516336 L1.26769529,13.7443727 C0.55567227,13.6722033 0,13.0709282 0,12.3398689 C0,11.5601728 0.63206859,10.9281042 1.41176471,10.9281042 L1.66666667,10.9281042 L2.43893549,5.47679483 C2.71303546,3.54197154 4.16422211,2.03016692 6.00611433,1.62421001 Z" id="Combined-Shape"></path>
            <path d="M5,14.6928101 L9,14.6928101 C9,15.7324049 8.1045695,16.575163 7,16.575163 C5.8954305,16.575163 5,15.7324049 5,14.6928101 Z" id="Combined-Shape"></path>
        </g>
    </g>
</svg>