<svg width="100" height="100" viewBox="0 0 100 100" fill="none" xmlns="http://www.w3.org/2000/svg">
<path fill-rule="evenodd" clip-rule="evenodd" d="M28.0053 31H27.946H27.5H21H20.054H20V31.9723L19.9071 33.6431C19.5776 36.5864 18.4055 39.3485 16.9603 41.7017C15.2492 44.4879 13.1982 46.6296 11.8643 47.7281L13.1357 49.2719C14.6351 48.0371 16.8341 45.7288 18.6646 42.7483C18.9456 42.2908 19.219 41.8157 19.4804 41.3246L18.6095 57H12.5V59H18.4984L17.9429 69H30.0571L29.5015 59H73.4985L72.9429 69H85.0571L84.5015 59H90.5V57H84.3904L83.5196 41.3247C83.781 41.8157 84.0543 42.2908 84.3353 42.7483C86.1658 45.7288 88.3648 48.0371 89.8643 49.2719L91.1357 47.7281C89.8018 46.6296 87.7508 44.4879 86.0396 41.7017C84.5945 39.3487 83.4225 36.5867 83.0929 33.6437L83 31.9717V31H82.946H82H75.5H75.054H74.9947L74.6949 31.4068C72.5582 34.3067 64.7962 40.5 51.5 40.5C38.2038 40.5 30.4418 34.3067 28.305 31.4068L28.0053 31ZM74.8756 34.2117C73.268 35.7897 70.8036 37.6173 67.5 39.1542V57H73.5V58.9723L74.8756 34.2117ZM65.5 40.0052C63.8411 40.648 62.0072 41.2082 60 41.634V57H65.5V40.0052ZM58 42.0029C56.2802 42.2736 54.4465 42.4448 52.5 42.4888V57H58V42.0029ZM50.5 42.4888C48.3636 42.4405 46.3632 42.2391 44.5 41.9209V57H50.5V42.4888ZM42.5 41.5244C40.4864 41.0685 38.6525 40.4778 37 39.8069V57H42.5V41.5244ZM35.1733 39C32.0335 37.4961 29.6786 35.7373 28.1244 34.2118L29.3904 57H35V39H35.1733ZM26.054 33H21.9696C21.9531 33.2717 21.9301 33.5417 21.901 33.81L20.0571 67H27.9429L26.054 33ZM81.0304 33C81.0469 33.2719 81.0699 33.5422 81.0991 33.8107L82.9429 67H75.0571L76.946 33H81.0304Z" fill="#ED1D24"/>
</svg>
