<?xml version="1.0" encoding="UTF-8"?>
<svg width="100px" height="100px" viewBox="0 0 100 100" version="1.1" xmlns="http://www.w3.org/2000/svg" xmlns:xlink="http://www.w3.org/1999/xlink">
    <!-- Generator: Sketch 57.1 (83088) - https://sketch.com -->
    <title>build</title>
    <desc>Created with Sketch.</desc>
    <g id="build" stroke="none" stroke-width="1" fill="none" fill-rule="evenodd">
        <g id="Building" transform="translate(20.000000, 30.000000)" stroke="#ED1D24">
            <rect id="Rectangle-3" stroke-width="2" x="1" y="1" width="44" height="120" rx="4"></rect>
            <path d="M63.5,109.5 L58.5,109.5 L58.5,110.5 L63.5,110.5 L63.5,109.5 Z M63.5,103.5 L58.5,103.5 L58.5,104.5 L63.5,104.5 L63.5,103.5 Z M63.5,97.5 L58.5,97.5 L58.5,98.5 L63.5,98.5 L63.5,97.5 Z M63.5,91.5 L58.5,91.5 L58.5,92.5 L63.5,92.5 L63.5,91.5 Z M63.5,85.5 L58.5,85.5 L58.5,86.5 L63.5,86.5 L63.5,85.5 Z M63.5,79.5 L58.5,79.5 L58.5,80.5 L63.5,80.5 L63.5,79.5 Z M63.5,73.5 L58.5,73.5 L58.5,74.5 L63.5,74.5 L63.5,73.5 Z M63.5,67.5 L58.5,67.5 L58.5,68.5 L63.5,68.5 L63.5,67.5 Z M63.5,61.5 L58.5,61.5 L58.5,62.5 L63.5,62.5 L63.5,61.5 Z M63.5,55.5 L58.5,55.5 L58.5,56.5 L63.5,56.5 L63.5,55.5 Z M63.5,49.5 L58.5,49.5 L58.5,50.5 L63.5,50.5 L63.5,49.5 Z M63.5,43.5 L58.5,43.5 L58.5,44.5 L63.5,44.5 L63.5,43.5 Z M63.5,37.5 L58.5,37.5 L58.5,38.5 L63.5,38.5 L63.5,37.5 Z M63.5,31.5 L58.5,31.5 L58.5,32.5 L63.5,32.5 L63.5,31.5 Z" id="Combined-Shape-Copy" fill="#44C960"></path>
            <path d="M44.5,86.5 L38.5,86.5 L38.5,87.5 L44.5,87.5 L44.5,86.5 Z M44.5,80.5 L38.5,80.5 L38.5,81.5 L44.5,81.5 L44.5,80.5 Z M44.5,74.5 L38.5,74.5 L38.5,75.5 L44.5,75.5 L44.5,74.5 Z M44.5,68.5 L38.5,68.5 L38.5,69.5 L44.5,69.5 L44.5,68.5 Z M44.5,62.5 L38.5,62.5 L38.5,63.5 L44.5,63.5 L44.5,62.5 Z M44.5,56.5 L38.5,56.5 L38.5,57.5 L44.5,57.5 L44.5,56.5 Z M44.5,50.5 L38.5,50.5 L38.5,51.5 L44.5,51.5 L44.5,50.5 Z M44.5,44.5 L38.5,44.5 L38.5,45.5 L44.5,45.5 L44.5,44.5 Z M44.5,38.5 L38.5,38.5 L38.5,39.5 L44.5,39.5 L44.5,38.5 Z M44.5,32.5 L38.5,32.5 L38.5,33.5 L44.5,33.5 L44.5,32.5 Z M44.5,26.5 L38.5,26.5 L38.5,27.5 L44.5,27.5 L44.5,26.5 Z M44.5,20.5 L38.5,20.5 L38.5,21.5 L44.5,21.5 L44.5,20.5 Z M44.5,14.5 L38.5,14.5 L38.5,15.5 L44.5,15.5 L44.5,14.5 Z M44.5,8.5 L38.5,8.5 L38.5,9.5 L44.5,9.5 L44.5,8.5 Z" id="Combined-Shape" fill="#44C960"></path>
            <path d="M33.5,86.5 L30.5,86.5 L30.5,87.5 L33.5,87.5 L33.5,86.5 Z M33.5,80.5 L30.5,80.5 L30.5,81.5 L33.5,81.5 L33.5,80.5 Z M33.5,74.5 L30.5,74.5 L30.5,75.5 L33.5,75.5 L33.5,74.5 Z M33.5,68.5 L30.5,68.5 L30.5,69.5 L33.5,69.5 L33.5,68.5 Z M33.5,62.5 L30.5,62.5 L30.5,63.5 L33.5,63.5 L33.5,62.5 Z M33.5,56.5 L30.5,56.5 L30.5,57.5 L33.5,57.5 L33.5,56.5 Z M33.5,50.5 L30.5,50.5 L30.5,51.5 L33.5,51.5 L33.5,50.5 Z M33.5,44.5 L30.5,44.5 L30.5,45.5 L33.5,45.5 L33.5,44.5 Z M33.5,38.5 L30.5,38.5 L30.5,39.5 L33.5,39.5 L33.5,38.5 Z M33.5,32.5 L30.5,32.5 L30.5,33.5 L33.5,33.5 L33.5,32.5 Z M33.5,26.5 L30.5,26.5 L30.5,27.5 L33.5,27.5 L33.5,26.5 Z M33.5,20.5 L30.5,20.5 L30.5,21.5 L33.5,21.5 L33.5,20.5 Z M33.5,14.5 L30.5,14.5 L30.5,15.5 L33.5,15.5 L33.5,14.5 Z M33.5,8.5 L30.5,8.5 L30.5,9.5 L33.5,9.5 L33.5,8.5 Z" id="Combined-Shape" fill="#44C960"></path>
        </g>
        <path d="M85,56 C87.7614237,56 90,58.2385763 90,61 L90,150 L69,150 L69,148 L88,148 L88,61 C88,59.3431458 86.6568542,58 85,58 L69,58 L69,56 L85,56 Z" id="Rectangle" fill="#ED1D24" fill-rule="nonzero"></path>
    </g>
</svg>