<?xml version="1.0" encoding="UTF-8"?>
<svg width="60px" height="50px" viewBox="0 0 60 50" version="1.1" xmlns="http://www.w3.org/2000/svg" xmlns:xlink="http://www.w3.org/1999/xlink">
    <!-- Generator: Sketch 57.1 (83088) - https://sketch.com -->
    <title>Page 1</title>
    <desc>Created with Sketch.</desc>
    <g id="Page-1" stroke="none" stroke-width="1" fill="none" fill-rule="evenodd">
        <g id="contact-pop-copy-2" transform="translate(-401.000000, -278.000000)" fill="#FFFFFF" stroke="#ED1E24" stroke-width="2">
            <g id="Group-8-Copy" transform="translate(214.000000, 240.000000)">
                <g id="Group-7">
                    <g id="Group" transform="translate(0.000000, 38.000000)">
                        <path d="M225.838209,34.8556507 L225.838209,31.8016338 L226.797249,31.7623182 C230.699191,31.602359 234.390775,29.9503851 237.095513,27.1665975 C237.323755,26.9183338 237.440058,26.5880208 237.418461,26.2580089 C237.393174,25.911051 237.224907,25.588544 236.95021,25.3652684 C234.865181,23.6525969 233.343859,21.4361242 232.292983,18.9260189 C231.60343,17.2789657 231.21399,15.7681297 231.022839,14.5220965 C230.939374,13.9586892 230.87191,13.5825561 230.778895,13.210018 C229.097347,6.01874493 224.821145,3.06807288 219.020518,2.99993134 C213.197187,3.06817495 208.916402,6.01913355 207.220088,13.2121668 C207.129579,13.5954175 207.067229,13.9472462 206.979675,14.5261003 C206.793224,15.7504715 206.401376,17.2684631 205.711373,18.9159285 C204.659833,21.4266061 203.138243,23.6463209 201.054618,25.363859 C200.788549,25.5834013 200.623572,25.9033891 200.599325,26.24709 C200.575391,26.5841574 200.691952,26.9163188 200.903671,27.1470445 C203.623943,29.9507272 207.316704,31.6044557 211.221272,31.7679271 L212.179442,31.8080425 L212.179442,34.9196853 L211.408432,35.1010578 C204.216795,36.7928182 199,40.1428689 198.999998,45.4563583 C199.000763,45.8579587 199.327333,46.1845231 199.727042,46.1853046 L238.271026,46.1853064 C238.672627,46.1845413 238.999191,45.8579714 238.999976,45.4558103 C239.013009,40.1418105 233.801765,36.792647 226.531638,35.0793375 L225.838209,34.8556507 Z M222.79518,32.6326799 L222.378738,32.6326799 L222.378738,33.4831242 C222.465776,33.5082856 222.555112,33.5284947 222.646454,33.5434112 L222.79518,32.6326799 Z M215.262725,32.6272463 L215.184349,32.6272463 L215.335929,33.5393369 C215.33668,33.5392121 215.337431,33.5390869 215.338182,33.5389613 L215.262725,32.6272463 Z M210.994741,23.0433101 L210.94595,23.1130248 L211.704665,23.0750211 L211.699973,22.981342 C211.69157,22.9407441 211.681113,22.8986241 211.668128,22.85274 L210.994741,23.0433101 Z M220.366047,12.9836527 L220.364231,12.98237 L220.364231,13.98237 L220.366047,13.98237 L220.366047,12.9836527 Z M223.028616,31.5793271 C223.140915,31.5945826 223.247318,31.6081631 223.503944,31.6405492 L224.378738,31.7509474 L224.378738,32.6326799 L224.378718,34.2826238 C224.374952,34.8751967 224.606144,35.4461988 225.020982,35.8685543 L225.61395,36.4722668 L225.116662,37.1569449 C223.691387,39.1192999 221.415107,40.2795241 218.990544,40.2795241 C216.565218,40.2795241 214.286986,39.1186003 212.863993,37.1563484 L212.368335,36.4728554 L212.959057,35.8696241 C213.37315,35.4467614 213.604871,34.8744337 213.60235,34.2762674 L213.60235,31.6272463 L214.60235,31.6272463 C214.64865,31.6272463 214.710487,31.6188584 214.895414,31.5861844 C214.94961,31.5766216 214.94961,31.5766216 215.009401,31.5664734 L215.173804,32.5528667 L215.173804,33.5528667 L215.171988,33.5528667 L215.008048,31.5663965 C215.148729,31.5430169 215.249555,31.4244117 215.249612,31.2955141 C215.248327,31.1755304 215.179075,31.0691725 215.065249,31.0173792 C213.052691,30.0892662 211.436238,28.4707015 210.506919,26.4554167 L209.245925,23.7208721 L210.036619,24.1502358 L209.733127,23.9378343 L209.733127,23.4171189 C209.733127,23.3615248 209.732983,23.3594619 209.743707,23.3973557 L209.71284,23.288286 L209.407573,17.1938427 L210.350763,17.0961797 C214.292646,16.6880159 217.552886,15.2288942 219.547472,12.4053923 L219.846304,11.98237 L221.00218,11.98237 L221.27179,12.5585426 C222.538858,15.2663377 224.917666,17.294616 227.792435,18.1182652 L228.555742,18.3369601 L228.515737,19.1299697 L228.309605,23.2125064 C228.193852,24.8776807 227.631656,26.4797811 226.681697,27.8549365 C225.732927,29.2283691 224.432259,30.3203328 222.911468,31.0195301 C222.801239,31.069673 222.731269,31.1767712 222.730052,31.2876714 C222.72965,31.4275042 222.830993,31.5470545 222.968792,31.5695577 L223.028616,31.5793271 Z" id="Page-1"></path>
                    </g>
                </g>
            </g>
        </g>
    </g>
</svg>