<?xml version="1.0" encoding="UTF-8"?>
<svg width="100px" height="100px" viewBox="0 0 100 100" version="1.1" xmlns="http://www.w3.org/2000/svg" xmlns:xlink="http://www.w3.org/1999/xlink">
    <!-- Generator: Sketch 57.1 (83088) - https://sketch.com -->
    <title>Electricity</title>
    <desc>Created with Sketch.</desc>
    <g id="Electricity" stroke="none" stroke-width="1" fill="none" fill-rule="evenodd">
        <g id="Page-1" transform="translate(47.500000, 64.500000) rotate(-90.000000) translate(-47.500000, -64.500000) translate(8.000000, 45.000000)">
            <path d="M56.5869565,24.7672286 L56.5869565,14.3208 L56.5869565,7.96491429 L56.5869565,2.78571429 C56.5869565,1.6146 55.6793623,0.696428571 54.5217391,0.696428571 L47.0869565,0.696428571 C41.3858551,0.696428571 35.9347826,3.28602857 32.2988986,7.71754286 C29.4075942,11.2253143 25.1956522,13.2321429 20.6521739,13.2321429 L16.3587246,13.2321429 C15.2011014,13.2321429 14.2935072,14.1503143 14.2935072,15.3214286 L14.2935072,17.4107143 L2.89130435,17.4107143 C1.73368116,17.4107143 0.826086957,18.3288857 0.826086957,19.5 C0.826086957,20.6711143 1.73368116,21.5892857 2.89130435,21.5892857 L14.2935072,21.5892857 L14.2935072,23.6785714 C14.2935072,24.8496857 15.2011014,25.7678571 16.3587246,25.7678571 L20.6521739,25.7678571 C25.1956522,25.7678571 29.4075942,27.7746857 32.2988986,31.2824571 C35.9347826,35.7139714 41.3858551,38.3035714 47.0869565,38.3035714 L54.5217391,38.3035714 C55.6793623,38.3035714 56.5869565,37.3854 56.5869565,36.2142857 L56.5869565,30.9470571 L56.5869565,24.7672286 Z" id="Fill-1" stroke="#ED1D24" stroke-width="2"></path>
            <path d="M57.5,7.5 L57.5,10.5 L77.008845,10.5 C77.8329958,10.5 78.5,9.82961503 78.5,9 C78.5,8.16633386 77.8348439,7.5 77.008845,7.5 L57.5,7.5 Z" id="Rectangle" stroke="#ED1D24" fill="#ED1D24"></path>
            <path d="M57.5,28.5 L57.5,31.5 L77.008845,31.5 C77.8329958,31.5 78.5,30.829615 78.5,30 C78.5,29.1663339 77.8348439,28.5 77.008845,28.5 L57.5,28.5 Z" id="Rectangle-Copy" stroke="#ED1D24" fill="#ED1D24"></path>
            <path d="M46.2608696,14.3208 C45.6848116,14.3208 45.1847536,14.8211143 45.1847536,15.4083429 L45.1847536,23.7654857 C45.1847536,24.3493714 45.6804058,24.8541429 46.2608696,24.8541429 C46.8369275,24.8541429 47.3369855,24.3527143 47.3369855,23.7654857 L47.3369855,15.3214286 C47.3369855,14.7386571 46.8369275,14.3208 46.2608696,14.3208 Z" id="Fill-2" fill="#ED1D24"></path>
            <path d="M42.1304348,14.3208 C41.5543768,14.3208 41.0543188,14.8211143 41.0543188,15.4083429 L41.0543188,23.7654857 C41.0543188,24.3493714 41.549971,24.8541429 42.1304348,24.8541429 C42.7064928,24.8541429 43.2065507,24.3527143 43.2065507,23.7654857 L43.2065507,15.3214286 C43.2065507,14.7386571 42.7064928,14.3208 42.1304348,14.3208 Z" id="Fill-3" fill="#ED1D24"></path>
            <path d="M38,14.3208 C37.423942,14.3208 36.9238841,14.8211143 36.9238841,15.4083429 L36.9238841,23.7654857 C36.9238841,24.3493714 37.4195362,24.8541429 38,24.8541429 C38.576058,24.8541429 39.0761159,24.3527143 39.0761159,23.7654857 L39.0761159,15.3214286 C39.0761159,14.7386571 38.576058,14.3208 38,14.3208 Z" id="Fill-4" fill="#ED1D24"></path>
        </g>
    </g>
</svg>