<?xml version="1.0" encoding="UTF-8"?>
<svg width="50px" height="71px" viewBox="0 0 50 71" version="1.1" xmlns="http://www.w3.org/2000/svg" xmlns:xlink="http://www.w3.org/1999/xlink">
    <!-- Generator: Sketch 57.1 (83088) - https://sketch.com -->
    <title>Group 23</title>
    <desc>Created with Sketch.</desc>
    <g id="Page-1" stroke="none" stroke-width="1" fill="none" fill-rule="evenodd">
        <g id="Home" transform="translate(-746.000000, -817.000000)">
            <g id="Group-6" transform="translate(658.000000, 819.000000)">
                <g id="Group-14" transform="translate(56.000000, 0.000000)">
                    <g id="Group-23" transform="translate(32.000000, 0.000000)">
                        <rect id="Rectangle-6" fill="#FFFFFF" x="-2.13162821e-14" y="2" width="50" height="67" rx="4"></rect>
                        <path d="M1,5.99050808 C1,3.78661132 2.79426827,2 5.00718972,2 L44.9928103,2 C47.2059201,2 49,3.79208815 49,5.99050808 L49,63.0094919 C49,65.2133887 47.2057317,67 44.9928103,67 L5.00718972,67 C2.79407995,67 1,65.2079118 1,63.0094919 L1,5.99050808 Z M3,5.99050808 L3,63.0094919 C3,64.1037879 3.89910622,65 5.00718972,65 L44.9928103,65 C46.1031051,65 47,64.1068678 47,63.0094919 L47,5.99050808 C47,4.89621213 46.1008938,4 44.9928103,4 L5.00718972,4 C3.89689489,4 3,4.89313219 3,5.99050808 Z" id="Rectangle-6-Copy-2" fill="#ED1D24" fill-rule="nonzero"></path>
                        <g id="Group-16" transform="translate(8.000000, 12.000000)" fill="#ED1D24">
                            <path d="M1,6 L1,4 L6,4 L6,2 L8,2 L8,4 L8,6 L6,6 L1,6 Z" id="Combined-Shape" transform="translate(4.500000, 4.000000) rotate(45.000000) translate(-4.500000, -4.000000) "></path>
                            <rect id="Rectangle-Copy-23" x="12" y="4" width="20" height="2"></rect>
                        </g>
                        <g id="Group-11" transform="translate(8.000000, 24.000000)" fill="#ED1D24">
                            <path d="M1,6 L1,4 L6,4 L6,2 L8,2 L8,4 L8,6 L6,6 L1,6 Z" id="Combined-Shape-Copy" transform="translate(4.500000, 4.000000) rotate(45.000000) translate(-4.500000, -4.000000) "></path>
                            <rect id="Rectangle-Copy-24" x="12" y="4" width="20" height="2"></rect>
                        </g>
                        <g id="Group-8" transform="translate(8.000000, 36.000000)" fill="#ED1D24">
                            <path d="M1,6 L1,4 L6,4 L6,2 L8,2 L8,4 L8,6 L6,6 L1,6 Z" id="Combined-Shape-Copy-2" transform="translate(4.500000, 4.000000) rotate(45.000000) translate(-4.500000, -4.000000) "></path>
                            <rect id="Rectangle-Copy-25" x="12" y="4" width="20" height="2"></rect>
                        </g>
                        <g id="Group-7" transform="translate(8.000000, 48.000000)" fill="#ED1D24">
                            <path d="M1,6 L1,4 L6,4 L6,2 L8,2 L8,4 L8,6 L6,6 L1,6 Z" id="Combined-Shape-Copy-3" transform="translate(4.500000, 4.000000) rotate(45.000000) translate(-4.500000, -4.000000) "></path>
                            <rect id="Rectangle-Copy-26" x="12" y="4" width="20" height="2"></rect>
                        </g>
                        <rect id="Rectangle" stroke="#FFFFFF" stroke-width="2" fill="#ED1D24" x="14" y="-1" width="23" height="8" rx="1"></rect>
                    </g>
                </g>
            </g>
        </g>
    </g>
</svg>