<svg width="100" height="100" viewBox="0 0 100 100" fill="none" xmlns="http://www.w3.org/2000/svg">
<path fill-rule="evenodd" clip-rule="evenodd" d="M12 26H21C22.4865 26 23.7205 27.0811 23.9585 28.5H25.9472C27.3177 28.5 28.514 29.4288 28.8536 30.7565L33.8229 50.1818L54.2534 55.5326L53.7466 57.4674L48.7322 56.1541L41.3628 67.9908C39.9583 70.2466 36.5311 69.6977 35.9014 67.1161L32.0298 51.2424L26.916 31.2522C26.8028 30.8096 26.4041 30.5 25.9472 30.5H23.9585C23.7205 31.9189 22.4865 33 21 33H12C10.3431 33 9 31.6569 9 30V29C9 27.3431 10.3431 26 12 26ZM12 28C11.4477 28 11 28.4477 11 29V30C11 30.5523 11.4477 31 12 31H21C21.5523 31 22 30.5523 22 30V29C22 28.4477 21.5523 28 21 28H12ZM46.7065 55.6235L34.3689 52.3922L37.8445 66.6422C38.0544 67.5027 39.1968 67.6857 39.6649 66.9338L46.7065 55.6235ZM30.4134 28.619H77C78.6569 28.619 80 29.9622 80 31.619V35.0476C80 36.3538 79.1652 37.4651 78 37.8769V38H77.5353C77.3616 38.0313 77.1827 38.0476 77 38.0476H73.5911L52.4145 51.7643L35.3662 47.6641L30.4134 28.619ZM69.9858 38L52.0476 49.619L37 46L33 30.619H77C77.5523 30.619 78 31.0668 78 31.619V35.0476C78 35.4932 77.7085 35.8708 77.3058 36L43 36V38L69.9858 38ZM81 59C81 66.1797 75.1797 72 68 72C60.8203 72 55 66.1797 55 59C55 51.8203 60.8203 46 68 46C75.1797 46 81 51.8203 81 59ZM68 70C74.0751 70 79 65.0751 79 59C79 52.9249 74.0751 48 68 48C61.9249 48 57 52.9249 57 59C57 65.0751 61.9249 70 68 70ZM68 65C64.6863 65 62 62.3137 62 59C62 55.6863 64.6863 53 68 53C71.3137 53 74 55.6863 74 59C74 62.3137 71.3137 65 68 65ZM64 59C64 61.2091 65.7909 63 68 63C70.2091 63 72 61.2091 72 59C72 56.7909 70.2091 55 68 55C65.7909 55 64 56.7909 64 59Z" fill="#ED1D24"/>
</svg>
