<?xml version="1.0" encoding="UTF-8"?>
<svg width="162px" height="25px" viewBox="0 0 162 25" version="1.1" xmlns="http://www.w3.org/2000/svg" xmlns:xlink="http://www.w3.org/1999/xlink">
    <!-- Generator: Sketch 57.1 (83088) - https://sketch.com -->
    <title>logo</title>
    <desc>Created with Sketch.</desc>
    <g id="Page-1" stroke="none" stroke-width="1" fill="none" fill-rule="evenodd">
        <g id="Home" transform="translate(-963.000000, -38.000000)" fill="#E81E25" fill-rule="nonzero">
            <path d="M1109.14242,39.2363281 C1109.55258,39.9277378 1109.81625,40.7011676 1109.93344,41.5566406 L1110.17953,41.5566406 C1110.37875,41.3222645 1110.71273,41.0322283 1111.18148,40.6865234 C1111.65024,40.3408186 1112.11019,40.0507824 1112.56137,39.8164062 C1113.01254,39.5820301 1113.59847,39.368165 1114.31918,39.1748047 C1115.03989,38.9814443 1115.88363,38.8847656 1116.85043,38.8847656 C1117.81723,38.8847656 1118.743,39.0576155 1119.62777,39.4033203 C1120.51254,39.7490252 1121.23617,40.2148408 1121.79867,40.8007812 C1122.36117,41.3867217 1122.81234,42.1249955 1123.15219,43.015625 C1123.77328,44.5976642 1124.08383,46.6542842 1124.08383,49.1855469 L1124.08383,62 L1113.07992,62 L1113.07992,56.7441406 L1117.14047,56.7441406 L1117.14047,49.1855469 C1117.14047,47.955072 1117.07309,47.0585966 1116.93832,46.4960938 C1116.80355,45.9335909 1116.63656,45.5175795 1116.43734,45.2480469 C1115.99203,44.6152312 1115.28305,44.2988281 1114.31039,44.2988281 C1113.90023,44.2988281 1113.5018,44.3779289 1113.11508,44.5361328 C1112.72836,44.6943367 1112.4061,44.8906238 1112.14828,45.125 C1111.58578,45.6289088 1111.20492,46.0507796 1111.0057,46.390625 L1110.86508,46.6367188 L1109.54672,62 L1102.83188,62 L1104.15023,47.6210938 C1104.23227,46.7773395 1104.27328,45.9980504 1104.27328,45.2832031 C1104.27328,43.2910057 1103.90414,41.2754008 1103.16586,39.2363281 L1109.14242,39.2363281 Z M1090.70594,38.8847656 C1092.15907,38.8847656 1093.45105,39.0781231 1094.58191,39.4648438 C1095.71278,39.8515644 1096.63269,40.3642546 1097.34168,41.0029297 C1098.05067,41.6416048 1098.63367,42.4179642 1099.0907,43.3320312 C1099.91102,44.9609456 1100.32117,46.912098 1100.32117,49.1855469 L1100.32117,52.0683594 C1100.32117,53.193365 1100.24793,54.2158157 1100.10145,55.1357422 C1099.95496,56.0556687 1099.67078,56.978511 1099.24891,57.9042969 C1098.82703,58.8300828 1098.27039,59.6064422 1097.57898,60.2333984 C1096.88757,60.8603547 1095.95887,61.3701152 1094.79285,61.7626953 C1093.62683,62.1552754 1092.26454,62.3515625 1090.70594,62.3515625 C1087.62389,62.3515625 1085.23329,62.193361 1083.53406,61.8769531 L1083.53406,56.5507812 C1085.35048,56.7617198 1087.52428,56.8671875 1090.05555,56.8671875 C1091.32118,56.8671875 1092.21179,56.4423871 1092.72742,55.5927734 C1093.24305,54.7431598 1093.50086,53.5683669 1093.50086,52.0683594 L1093.50086,49.1503906 C1093.50086,48.5410126 1093.47449,48.0195334 1093.42176,47.5859375 C1093.36902,47.1523416 1093.2577,46.7070335 1093.08777,46.25 C1092.91785,45.7929665 1092.68641,45.4238295 1092.39344,45.1425781 C1091.71375,44.5097625 1090.65907,44.1933594 1089.22937,44.1933594 C1087.70593,44.1933594 1086.08876,44.2695305 1084.37781,44.421875 L1083.53406,44.5097656 L1083.53406,39.1660156 C1085.52626,38.9785147 1087.91686,38.8847656 1090.70594,38.8847656 Z M1063.93742,39.2539062 C1066.32806,39.0078113 1068.43448,38.8847656 1070.25676,38.8847656 C1072.07903,38.8847656 1073.50871,38.9726554 1074.54582,39.1484375 C1075.58293,39.3242196 1076.45011,39.5996075 1077.14738,39.9746094 C1077.84465,40.3496113 1078.41886,40.771482 1078.87004,41.2402344 C1079.32121,41.7089867 1079.66691,42.2919887 1079.90715,42.9892578 C1080.14738,43.6865269 1080.31144,44.3837856 1080.39934,45.0810547 C1080.48723,45.7783238 1080.53117,46.6015578 1080.53117,47.5507812 L1080.53117,62 L1073.71086,62 L1073.71086,47.5507812 C1073.71086,45.2890512 1072.56243,44.1582031 1070.26555,44.1582031 C1068.53116,44.1582031 1066.42181,44.2871081 1063.93742,44.5449219 L1063.93742,39.2539062 Z M1063.09664,39.2363281 L1063.09664,44.140625 C1062.49898,44.6093773 1061.98043,45.2099573 1061.54098,45.9423828 C1061.10152,46.6748083 1060.76754,47.363278 1060.53902,48.0078125 C1060.31051,48.652347 1060.14938,49.3554649 1060.05562,50.1171875 C1059.96187,50.8789101 1059.90621,51.5117162 1059.88863,52.015625 C1059.87105,52.5195338 1059.86227,53.2402297 1059.86227,54.1777344 L1059.86227,62 L1053.04195,62 L1053.04195,54.1777344 C1053.04195,49.8066188 1054.28999,46.5781354 1056.78609,44.4921875 L1052.26852,44.4921875 L1052.26852,39.2363281 L1063.09664,39.2363281 Z M1042.18164,54.6347656 L1042.18164,39.2363281 L1049.00195,39.2363281 L1049.00195,49.8535156 L1045.22266,54.6347656 L1042.18164,54.6347656 Z M1018.91414,38.8847656 C1021.04696,38.8847656 1022.72859,39.0781231 1023.95906,39.4648438 C1025.33016,39.8867209 1026.30281,40.4374966 1026.87703,41.1171875 C1027.55672,41.8906289 1028.00203,42.7695263 1028.21297,43.7539062 C1028.43563,44.7265674 1028.54695,45.8925713 1028.54695,47.2519531 L1028.54695,56.7441406 L1031.02547,56.7441406 L1031.02547,62 L1011.93563,62 L1011.93563,56.7441406 L1021.72664,56.7441406 L1021.72664,47.5507812 C1021.72664,45.2890512 1020.57236,44.1582031 1018.26375,44.1582031 C1016.81062,44.1582031 1015.06454,44.2578115 1013.02547,44.4570312 L1011.93563,44.5625 L1011.93563,39.3417969 C1013.3536,39.0371079 1015.67975,38.8847656 1018.91414,38.8847656 Z M997.313594,39.1660156 C998.251098,38.9785147 999.44054,38.8847656 1000.88195,38.8847656 C1002.32337,38.8847656 1003.48351,39.0195299 1004.36242,39.2890625 C1005.24133,39.5585951 1005.95031,39.9189431 1006.48937,40.3701172 C1007.02844,40.8212913 1007.46496,41.380856 1007.79895,42.0488281 C1008.13293,42.7168002 1008.36144,43.4052699 1008.48449,44.1142578 C1008.60754,44.8232457 1008.66906,45.6113238 1008.66906,46.4785156 L1008.66906,54.8808594 C1008.66906,55.9824274 1008.60168,57.1279237 1008.46691,58.3173828 C1008.33215,59.5068419 1008.20031,60.4179656 1008.07141,61.0507812 L1007.87805,62 L996.311641,62 L996.311641,56.7441406 L1001.63781,56.7441406 C1001.77844,56.169919 1001.84875,55.5488315 1001.84875,54.8808594 L1001.84875,46.4785156 C1001.84875,45.8691376 1001.71692,45.3505881 1001.45324,44.9228516 C1001.18957,44.495115 1000.75891,44.28125 1000.16125,44.28125 C999.399527,44.28125 998.60266,44.3398432 997.770625,44.4570312 L997.313594,44.5097656 L997.313594,39.1660156 Z M986.576328,54.6347656 L986.576328,39.2363281 L993.396641,39.2363281 L993.396641,49.8535156 L989.617344,54.6347656 L986.576328,54.6347656 Z M972.903516,38.8847656 C975.71603,38.8847656 977.790228,39.2480432 979.126172,39.9746094 C979.817582,40.3496113 980.391795,40.7744117 980.848828,41.2490234 C981.305862,41.7236352 981.654491,42.3066372 981.894727,42.9980469 C982.134962,43.6894566 982.299023,44.3837856 982.386914,45.0810547 C982.474805,45.7783238 982.51875,46.6015578 982.51875,47.5507812 L982.51875,62 L975.680859,62 L975.680859,47.5507812 C975.680859,45.2890512 974.532433,44.1582031 972.235547,44.1582031 C970.173037,44.1582031 967.735561,44.3105454 964.923047,44.6152344 L963.464063,44.7734375 L963.464063,39.5527344 C966.253139,39.1074196 969.399592,38.8847656 972.903516,38.8847656 Z M970.284375,62 L963.481641,62 L963.481641,48.7285156 L970.284375,48.7285156 L970.284375,62 Z" id="logo"></path>
        </g>
    </g>
</svg>