<?xml version="1.0" encoding="UTF-8"?>
<svg width="24px" height="17px" viewBox="0 0 24 17" version="1.1" xmlns="http://www.w3.org/2000/svg" xmlns:xlink="http://www.w3.org/1999/xlink">
    <!-- Generator: Sketch 57.1 (83088) - https://sketch.com -->
    <title>mail_w</title>
    <desc>Created with Sketch.</desc>
    <g id="Page-1" stroke="none" stroke-width="1" fill="none" fill-rule="evenodd">
        <g id="mail_w" fill="#FFFFFF" fill-rule="nonzero">
            <path d="M22,0.558824 C22.8284271,0.558824 23.5,1.23039688 23.5,2.058824 L23.5,15.058824 C23.5,15.8872511 22.8284271,16.558824 22,16.558824 L2,16.558824 C1.17157288,16.558824 0.5,15.8872511 0.5,15.058824 L0.5,2.058824 C0.5,1.23039688 1.17157288,0.558824 2,0.558824 L22,0.558824 Z M22.5,2.100824 L12,9.10092521 L1.5,2.100824 L1.5,15.058824 C1.5,15.3349664 1.72385763,15.558824 2,15.558824 L22,15.558824 C22.2761424,15.558824 22.5,15.3349664 22.5,15.058824 L22.5,2.100824 Z M21.51,1.558824 L2.49,1.558824 L12,7.89907479 L21.51,1.558824 Z" id="Combined-Shape"></path>
        </g>
    </g>
</svg>