<?xml version="1.0" encoding="UTF-8"?>
<svg width="18px" height="13px" viewBox="0 0 18 13" version="1.1" xmlns="http://www.w3.org/2000/svg" xmlns:xlink="http://www.w3.org/1999/xlink">
    <!-- Generator: Sketch 57.1 (83088) - https://sketch.com -->
    <title>mail</title>
    <desc>Created with Sketch.</desc>
    <g id="Page-1" stroke="none" stroke-width="1" fill="none" fill-rule="evenodd">
        <g id="mail" fill="#ED1D24">
            <path d="M18,1 L18,12 C18,12.5522847 17.5522847,13 17,13 L1,13 C0.44771525,13 9.55813795e-16,12.5522847 8.8817842e-16,12 L8.8817842e-16,1 C8.83176309e-16,0.959154668 0.00244884137,0.918881293 0.00720771537,0.879318684 L8.92539053,7.85968758 L17.9751709,0.777559823 C17.9914202,0.849095752 18,0.923545916 18,1 Z M17,-4.4408921e-16 C17.1008139,-4.6260842e-16 17.1981434,0.0149182015 17.2899015,0.0426674698 L8.92539053,6.58985437 L0.607741302,0.0798654457 C0.728182998,0.0284544683 0.86076855,-4.18512807e-16 1,-4.4408921e-16 L17,-4.4408921e-16 Z" id="Combined-Shape"></path>
        </g>
    </g>
</svg>