<?xml version="1.0" encoding="UTF-8"?>
<svg width="55px" height="71px" viewBox="0 0 55 71" version="1.1" xmlns="http://www.w3.org/2000/svg" xmlns:xlink="http://www.w3.org/1999/xlink">
    <!-- Generator: Sketch 57.1 (83088) - https://sketch.com -->
    <title>Group 22</title>
    <desc>Created with Sketch.</desc>
    <g id="Page-1" stroke="none" stroke-width="1" fill="none" fill-rule="evenodd">
        <g id="Home" transform="translate(-998.000000, -819.000000)">
            <g id="Group-15" transform="translate(907.000000, 819.000000)">
                <g id="Group-5">
                    <g id="Group-3" transform="translate(91.000000, 0.000000)">
                        <g id="Group-22" transform="translate(0.437782, 0.000000)">
                            <rect id="Rectangle-6-Copy" stroke="#ED1D24" stroke-width="2" fill="#FFFFFF" x="1" y="5" width="48" height="65" rx="4"></rect>
                            <rect id="Rectangle-6" stroke="#ED1D24" stroke-width="2" fill="#FFFFFF" x="5" y="1" width="48" height="65" rx="4"></rect>
                            <path d="M19.5622183,11 L19.5622183,15 L13.5622183,15 L13.5622183,11 L19.5622183,11 Z M32.5622183,11 L32.5622183,15 L22.5622183,15 L22.5622183,11 L32.5622183,11 Z M45.5622183,11 L45.5622183,15 L35.5622183,15 L35.5622183,11 L45.5622183,11 Z" id="Combined-Shape" fill="#ED1D24"></path>
                            <path d="M19.5622183,53 L19.5622183,57 L13.5622183,57 L13.5622183,53 L19.5622183,53 Z M32.5622183,53 L32.5622183,57 L22.5622183,57 L22.5622183,53 L32.5622183,53 Z M45.5622183,53 L45.5622183,57 L35.5622183,57 L35.5622183,53 L45.5622183,53 Z M19.5622183,46 L19.5622183,50 L13.5622183,50 L13.5622183,46 L19.5622183,46 Z M32.5622183,46 L32.5622183,50 L22.5622183,50 L22.5622183,46 L32.5622183,46 Z M45.5622183,46 L45.5622183,50 L35.5622183,50 L35.5622183,46 L45.5622183,46 Z M19.5622183,39 L19.5622183,43 L13.5622183,43 L13.5622183,39 L19.5622183,39 Z M32.5622183,39 L32.5622183,43 L22.5622183,43 L22.5622183,39 L32.5622183,39 Z M45.5622183,39 L45.5622183,43 L35.5622183,43 L35.5622183,39 L45.5622183,39 Z M19.5622183,32 L19.5622183,36 L13.5622183,36 L13.5622183,32 L19.5622183,32 Z M32.5622183,32 L32.5622183,36 L22.5622183,36 L22.5622183,32 L32.5622183,32 Z M45.5622183,32 L45.5622183,36 L35.5622183,36 L35.5622183,32 L45.5622183,32 Z M19.5622183,25 L19.5622183,29 L13.5622183,29 L13.5622183,25 L19.5622183,25 Z M32.5622183,25 L32.5622183,29 L22.5622183,29 L22.5622183,25 L32.5622183,25 Z M45.5622183,25 L45.5622183,29 L35.5622183,29 L35.5622183,25 L45.5622183,25 Z M19.5622183,18 L19.5622183,22 L13.5622183,22 L13.5622183,18 L19.5622183,18 Z M32.5622183,18 L32.5622183,22 L22.5622183,22 L22.5622183,18 L32.5622183,18 Z M45.5622183,18 L45.5622183,22 L35.5622183,22 L35.5622183,18 L45.5622183,18 Z" id="Combined-Shape" fill="#ED1D24" opacity="0.5"></path>
                        </g>
                    </g>
                </g>
            </g>
        </g>
    </g>
</svg>