<svg width="11" height="14" viewBox="0 0 11 14" fill="none" xmlns="http://www.w3.org/2000/svg">
<path d="M4.97656 7C5.03125 6.86328 5.08594 6.61719 5.08594 6.26172C5.08594 5.90625 5.03125 5.71484 4.92188 5.71484C4.86719 5.71484 4.86719 5.87891 4.86719 6.20703C4.86719 6.53516 4.89453 6.80859 4.97656 7ZM4.92188 8.28516C5.16797 8.77734 5.49609 9.13281 5.87891 9.40625C5.55078 9.48828 5.08594 9.625 4.53906 9.84375L4.15625 10.0078C4.375 9.57031 4.64844 8.99609 4.92188 8.28516ZM2.35156 11.7031C2.43359 11.4844 2.70703 11.1289 3.19922 10.6914L3.30859 10.6094C3.11719 10.8828 2.95312 11.1289 2.78906 11.3203C2.67969 11.4844 2.57031 11.5938 2.48828 11.6484C2.37891 11.7031 2.35156 11.7305 2.35156 11.7031ZM6.78125 4.375C6.58984 4.375 6.42578 4.32031 6.31641 4.18359C6.17969 4.07422 6.125 3.91016 6.125 3.71875V0H0.65625C0.464844 0 0.300781 0.0820312 0.191406 0.191406C0.0546875 0.328125 0 0.492188 0 0.65625V13.3438C0 13.5352 0.0546875 13.6992 0.191406 13.8086C0.300781 13.9453 0.464844 14 0.65625 14H9.84375C10.0078 14 10.1719 13.9453 10.3086 13.8086C10.418 13.6992 10.5 13.5352 10.5 13.3438V4.375H6.78125ZM6.5625 9.07812C7.60156 8.94141 8.28516 8.99609 8.58594 9.26953C8.69531 9.37891 8.75 9.54297 8.75 9.73438C8.75 9.92578 8.69531 10.0898 8.58594 10.2266C8.44922 10.3906 8.25781 10.4453 8.03906 10.4453C7.79297 10.4453 7.51953 10.418 7.19141 10.3086C6.86328 10.2266 6.5625 10.0898 6.28906 9.92578C5.90625 9.98047 5.33203 10.1445 4.53906 10.418L4.12891 10.5547C3.77344 11.1562 3.47266 11.5938 3.19922 11.8672C2.92578 12.1406 2.67969 12.25 2.46094 12.25C2.35156 12.25 2.24219 12.25 2.13281 12.1953C2.02344 12.1406 1.91406 12.0859 1.85938 11.9766C1.64062 11.7031 1.72266 11.3477 2.13281 10.9375C2.40625 10.6641 2.81641 10.3906 3.36328 10.1172C3.69141 9.54297 4.04688 8.75 4.48438 7.76562C4.34766 7.27344 4.26562 6.89062 4.23828 6.5625C4.18359 6.20703 4.18359 5.90625 4.26562 5.66016C4.29297 5.49609 4.40234 5.35938 4.62109 5.30469C4.8125 5.25 5.00391 5.25 5.19531 5.33203C5.38672 5.44141 5.52344 5.60547 5.57812 5.85156C5.63281 6.07031 5.63281 6.34375 5.57812 6.69922C5.55078 6.91797 5.49609 7.19141 5.41406 7.57422L5.38672 7.60156C5.63281 8.25781 6.01562 8.75 6.5625 9.07812ZM10.3086 2.87109C10.418 3.00781 10.5 3.17188 10.5 3.33594V3.5H7V0H7.16406C7.32812 0 7.49219 0.0820312 7.62891 0.191406L10.3086 2.87109ZM8.28516 9.84375L8.20312 9.87109C8.12109 9.89844 8.01172 9.89844 7.875 9.87109C7.65625 9.81641 7.41016 9.73438 7.10938 9.59766C7.4375 9.59766 7.71094 9.59766 7.92969 9.625C8.09375 9.65234 8.20312 9.67969 8.25781 9.73438C8.3125 9.78906 8.3125 9.84375 8.28516 9.84375Z" fill="#ED1D24"/>
</svg>
