<?xml version="1.0" encoding="UTF-8"?>
<svg width="54px" height="63px" viewBox="0 0 54 63" version="1.1" xmlns="http://www.w3.org/2000/svg" xmlns:xlink="http://www.w3.org/1999/xlink">
    <!-- Generator: Sketch 57.1 (83088) - https://sketch.com -->
    <title>Group 7</title>
    <desc>Created with Sketch.</desc>
    <g id="Page-1" stroke="none" stroke-width="1" fill="none" fill-rule="evenodd">
        <g id="Home" transform="translate(-229.000000, -829.000000)" stroke="#ED1D24">
            <g id="Group-7" transform="translate(230.000000, 830.000000)">
                <circle id="Oval" stroke-width="2" cx="26" cy="35" r="26"></circle>
                <rect id="Rectangle-Copy-23" stroke-width="2" fill="#ED1D24" x="18" y="0" width="16" height="2" rx="1"></rect>
                <path d="M32.3952,17.4895924 C32.1345196,17.4895924 31.9175804,17.6898696 31.8967923,17.9497197 L30.2863312,38.0804841 C30.281596,38.1396746 30.2792255,38.1990306 30.2792255,38.2584102 C30.2792255,39.4906581 31.2781598,40.4895924 32.5104076,40.4895924 C32.5697873,40.4895924 32.6291432,40.4872219 32.6883338,40.4824867 C33.9166573,40.3842208 34.83275,39.3088076 34.7344841,38.0804841 L33.1240229,17.9497197 C33.1032349,17.6898696 32.8862957,17.4895924 32.6256153,17.4895924 L32.3952,17.4895924 Z" id="Rectangle" stroke-width="2" fill="#ED1D24" transform="translate(32.510408, 28.989592) rotate(-315.000000) translate(-32.510408, -28.989592) "></path>
                <path d="M26.5,10.2 L26.5,11.8" id="Line-4" stroke-linecap="square"></path>
                <path d="M37.6533561,12.9490554 L37.6533561,14.5490554" id="Line-4" stroke-linecap="square" transform="translate(37.653356, 13.749055) rotate(28.000000) translate(-37.653356, -13.749055) "></path>
                <path d="M46.2516128,20.5664461 L46.2516128,22.1664461" id="Line-4" stroke-linecap="square" transform="translate(46.251613, 21.366446) rotate(55.000000) translate(-46.251613, -21.366446) "></path>
                <path d="M50.325013,31.3071197 L50.325013,32.9071197" id="Line-4" stroke-linecap="square" transform="translate(50.325013, 32.107120) rotate(83.000000) translate(-50.325013, -32.107120) "></path>
                <path d="M48.9403898,42.7105173 L48.9403898,44.3105173" id="Line-4" stroke-linecap="square" transform="translate(48.940390, 43.510517) rotate(111.000000) translate(-48.940390, -43.510517) "></path>
                <path d="M42.4149438,52.164258 L42.4149438,53.764258" id="Line-4" stroke-linecap="square" transform="translate(42.414944, 52.964258) rotate(138.000000) translate(-42.414944, -52.964258) "></path>
                <path d="M32.2435759,57.5026036 L32.2435759,59.1026036" id="Line-4" stroke-linecap="square" transform="translate(32.243576, 58.302604) rotate(166.000000) translate(-32.243576, -58.302604) "></path>
                <path d="M20.7564241,57.5026036 L20.7564241,59.1026036" id="Line-4" stroke-linecap="square" transform="translate(20.756424, 58.302604) rotate(194.000000) translate(-20.756424, -58.302604) "></path>
                <path d="M10.5850562,52.164258 L10.5850562,53.764258" id="Line-4" stroke-linecap="square" transform="translate(10.585056, 52.964258) rotate(222.000000) translate(-10.585056, -52.964258) "></path>
                <path d="M4.05961018,42.7105173 L4.05961018,44.3105173" id="Line-4" stroke-linecap="square" transform="translate(4.059610, 43.510517) rotate(249.000000) translate(-4.059610, -43.510517) "></path>
                <path d="M2.67498702,31.3071197 L2.67498702,32.9071197" id="Line-4" stroke-linecap="square" transform="translate(2.674987, 32.107120) rotate(277.000000) translate(-2.674987, -32.107120) "></path>
                <path d="M6.74838722,20.5664461 L6.74838722,22.1664461" id="Line-4" stroke-linecap="square" transform="translate(6.748387, 21.366446) rotate(305.000000) translate(-6.748387, -21.366446) "></path>
                <path d="M15.3466439,12.9490554 L15.3466439,14.5490554" id="Line-4" stroke-linecap="square" transform="translate(15.346644, 13.749055) rotate(332.000000) translate(-15.346644, -13.749055) "></path>
            </g>
        </g>
    </g>
</svg>