<svg width="100" height="100" viewBox="0 0 100 100" fill="none" xmlns="http://www.w3.org/2000/svg">
<path fill-rule="evenodd" clip-rule="evenodd" d="M83 27H81V28H51V28.0223C50.6685 28.0075 50.3351 28 50 28C37.8497 28 28 37.8497 28 50C28 52.8223 28.5315 55.5205 29.4998 58H19V57H17V58V72V73H19V72H49V71.9777C49.3315 71.9925 49.6649 72 50 72C62.1503 72 72 62.1503 72 50C72 47.1777 71.4685 44.4795 70.5002 42H81V43H83V42V28V27ZM81 30H59.1779C63.6749 32.067 67.355 35.6061 69.6012 40H81V30ZM40.8221 70H19V60H30.3988C32.645 64.3939 36.3251 67.933 40.8221 70ZM50 70C61.0457 70 70 61.0457 70 50C70 38.9543 61.0457 30 50 30C38.9543 30 30 38.9543 30 50C30 61.0457 38.9543 70 50 70ZM50 34C49.4477 34 49 34.4477 49 35V40C49 40.5523 49.4477 41 50 41C50.5523 41 51 40.5523 51 40V35C51 34.4477 50.5523 34 50 34ZM50 58C49.4477 58 49 58.4477 49 59V64C49 64.5523 49.4477 65 50 65C50.5523 65 51 64.5523 51 64V59C51 58.4477 50.5523 58 50 58ZM41.884 37.4426C41.6078 36.9643 41.7717 36.3527 42.25 36.0766C42.7283 35.8005 43.3399 35.9643 43.616 36.4426L46.116 40.7728C46.3922 41.251 46.2283 41.8626 45.75 42.1388C45.2717 42.4149 44.6601 42.251 44.384 41.7728L41.884 37.4426ZM53.884 58.2272C53.6078 57.7489 53.7717 57.1374 54.25 56.8612C54.7283 56.5851 55.3399 56.7489 55.616 57.2272L58.116 61.5574C58.3922 62.0357 58.2283 62.6472 57.75 62.9234C57.2717 63.1995 56.6601 63.0357 56.384 62.5574L53.884 58.2272ZM36.5766 41.75C36.3005 42.2283 36.4643 42.8399 36.9426 43.116L41.2728 45.616C41.751 45.8922 42.3626 45.7283 42.6388 45.25C42.9149 44.7717 42.751 44.1601 42.2728 43.884L37.9426 41.384C37.4643 41.1078 36.8527 41.2717 36.5766 41.75ZM57.3612 53.75C57.0851 54.2283 57.2489 54.8399 57.7272 55.116L62.0574 57.616C62.5357 57.8922 63.1472 57.7283 63.4234 57.25C63.6995 56.7717 63.5357 56.1601 63.0574 55.884L58.7272 53.384C58.2489 53.1078 57.6374 53.2717 57.3612 53.75ZM35.5 50.5C34.9477 50.5 34.5 50.0523 34.5 49.5C34.5 48.9477 34.9477 48.5 35.5 48.5H40.5C41.0523 48.5 41.5 48.9477 41.5 49.5C41.5 50.0523 41.0523 50.5 40.5 50.5H35.5ZM59.5 50.5C58.9477 50.5 58.5 50.0523 58.5 49.5C58.5 48.9477 58.9477 48.5 59.5 48.5H64.5C65.0523 48.5 65.5 48.9477 65.5 49.5C65.5 50.0523 65.0523 50.5 64.5 50.5H59.5ZM36.5766 57.25C36.8527 57.7283 37.4643 57.8922 37.9426 57.616L42.2728 55.116C42.751 54.8399 42.9149 54.2283 42.6388 53.75C42.3626 53.2717 41.751 53.1078 41.2728 53.384L36.9426 55.884C36.4643 56.1601 36.3005 56.7717 36.5766 57.25ZM57.3612 45.25C57.6374 45.7283 58.2489 45.8922 58.7272 45.616L63.0574 43.116C63.5357 42.8399 63.6995 42.2283 63.4234 41.75C63.1472 41.2717 62.5357 41.1078 62.0574 41.384L57.7272 43.884C57.2489 44.1601 57.0851 44.7717 57.3612 45.25ZM43.616 62.5574C43.3399 63.0357 42.7283 63.1995 42.25 62.9234C41.7717 62.6473 41.6078 62.0357 41.884 61.5574L44.384 57.2272C44.6601 56.749 45.2717 56.5851 45.75 56.8612C46.2283 57.1374 46.3922 57.749 46.116 58.2272L43.616 62.5574ZM55.616 41.7728C55.3399 42.2511 54.7283 42.4149 54.25 42.1388C53.7717 41.8626 53.6078 41.2511 53.884 40.7728L56.384 36.4426C56.6601 35.9643 57.2717 35.8005 57.75 36.0766C58.2283 36.3528 58.3922 36.9643 58.116 37.4426L55.616 41.7728Z" fill="#ED1D24"/>
</svg>
