<?xml version="1.0" encoding="UTF-8"?>
<svg width="35px" height="29px" viewBox="0 0 35 29" version="1.1" xmlns="http://www.w3.org/2000/svg" xmlns:xlink="http://www.w3.org/1999/xlink">
    <!-- Generator: Sketch 57.1 (83088) - https://sketch.com -->
    <title>quote</title>
    <desc>Created with Sketch.</desc>
    <g id="Page-1" stroke="none" stroke-width="1" fill="none" fill-rule="evenodd" fill-opacity="0.5">
        <g id="quote" fill="#ED1D24" fill-rule="nonzero">
            <path d="M0.783203,24.95508 C2.313159,22.87173 3.501298,20.57684 4.347656,18.07031 C5.194015,15.56379 5.617188,13.07358 5.617188,10.59961 L5.617188,0.78516 L16.75,0.78516 L16.701172,9.52539 C16.701172,12.94338 15.91993,16.3369 14.357422,19.70605 C12.794914,23.07521 10.760429,25.86653 8.253906,28.08008 L0.783203,24.95508 Z M18.751953,24.95508 C20.281909,22.87173 21.470048,20.57684 22.316406,18.07031 C23.162765,15.56379 23.585938,13.07358 23.585938,10.59961 L23.585938,0.78516 L34.71875,0.78516 L34.669922,9.52539 C34.669922,12.94338 33.88868,16.3369 32.326172,19.70605 C30.763664,23.07521 28.729179,25.86653 26.222656,28.08008 L18.751953,24.95508 Z" id="״-copy-2"></path>
        </g>
    </g>
</svg>