<?xml version="1.0" encoding="UTF-8"?>
<svg width="53px" height="53px" viewBox="0 0 53 53" version="1.1" xmlns="http://www.w3.org/2000/svg" xmlns:xlink="http://www.w3.org/1999/xlink">
    <!-- Generator: Sketch 57.1 (83088) - https://sketch.com -->
    <title>Group 24</title>
    <desc>Created with Sketch.</desc>
    <g id="Page-1" stroke="none" stroke-width="1" fill="none" fill-rule="evenodd">
        <g id="Home" transform="translate(-481.000000, -836.000000)" fill="#ED1D24" fill-rule="nonzero">
            <g id="Group-19" transform="translate(408.000000, 819.000000)">
                <g id="Group-13" transform="translate(15.000000, 0.000000)">
                    <g id="Group-12" transform="translate(39.000000, 0.000000)">
                        <g id="Group-24" transform="translate(19.000000, 17.000000)">
                            <path d="M19,38 C29.4934102,38 38,29.4934102 38,19 C38,8.50658975 29.4934102,0 19,0 C8.50658975,0 0,8.50658975 0,19 C0,29.4934102 8.50658975,38 19,38 Z M19,36 C9.61115925,36 2,28.3888407 2,19 C2,9.61115925 9.61115925,2 19,2 C28.3888407,2 36,9.61115925 36,19 C36,28.3888407 28.3888407,36 19,36 Z" id="Oval-2"></path>
                            <path d="M6.25740093,25.4144597 C8.57396156,30.5939462 13.7262314,34 19.5,34 L20.5,34 L20.5,32 L19.5,32 C14.5220655,32 10.0805123,29.0637855 8.08311338,24.5978974 L7.67483221,23.6850411 L5.84911976,24.5016035 L6.25740093,25.4144597 Z" id="Oval-2-Copy"></path>
                            <polygon id="Line" points="32.1715729 35 50 52.8284271 52.8284271 50 35 32.1715729"></polygon>
                        </g>
                    </g>
                </g>
            </g>
        </g>
    </g>
</svg>