<?xml version="1.0" encoding="UTF-8"?>
<svg width="60px" height="50px" viewBox="0 0 60 50" version="1.1" xmlns="http://www.w3.org/2000/svg" xmlns:xlink="http://www.w3.org/1999/xlink">
    <!-- Generator: Sketch 57.1 (83088) - https://sketch.com -->
    <title>Page 1</title>
    <desc>Created with Sketch.</desc>
    <g id="Page-1" stroke="none" stroke-width="1" fill="none" fill-rule="evenodd">
        <g id="contact-pop-copy-2" transform="translate(-403.000000, -374.000000)" fill="#FFFFFF" stroke="#ED1E24" stroke-width="2">
            <g id="Group-8-Copy" transform="translate(214.000000, 240.000000)">
                <g id="Group-7">
                    <g id="Group-2" transform="translate(189.000000, 134.000000)">
                        <path d="M19.8328647,17.9224007 L21.7340332,18.2577981 C21.9582284,19.0846407 22.2882308,19.8809955 22.716896,20.621701 L21.6102456,22.2018298 C21.2013148,22.7829337 21.2694669,23.5721258 21.7716654,24.0743013 L22.9105942,25.2132301 C23.4128157,25.7154515 24.2019618,25.7835898 24.7830657,25.3746499 L26.3631945,24.2679995 C27.1039459,24.6966601 27.9003007,25.0266579 28.7270974,25.2508623 L29.0624948,27.1520308 C29.1844596,27.8497136 29.7906654,28.3590979 30.4991383,28.3590979 L32.1294985,28.3590979 C32.8379714,28.3590979 33.444191,27.8497136 33.566142,27.1520308 L33.9015394,25.2508623 C34.728382,25.0266671 35.5211095,24.6966647 36.2618609,24.2679995 L37.8419897,25.3746499 C38.4213029,25.7835806 39.2122857,25.7154286 39.7144612,25.2132301 L40.85339,24.0743013 C41.3556114,23.5720798 41.4237497,22.7829337 41.0148098,22.2018298 L39.8884618,20.621701 C40.3117411,19.8791589 40.636376,19.0845948 40.8534175,18.2577981 L42.7545861,17.9224007 C43.4522689,17.8004405 43.9616532,17.1942301 43.9616532,16.4857572 L43.9616532,14.8733499 C43.9616532,14.164877 43.4522689,13.5586574 42.7545861,13.4367064 L40.8534175,13.1013089 C40.6310131,12.2744664 40.29922,11.4781116 39.8705548,10.7374061 L40.9772052,9.15727726 C41.3968985,8.58512682 41.3430949,7.79598071 40.8534497,7.28301508 L39.6966139,6.14587698 C39.1943925,5.64186483 38.4052464,5.57193584 37.8223517,5.97907591 L36.2619665,7.08572626 C35.5194244,6.65706569 34.7248603,6.3270679 33.8980637,6.10465423 L33.5626662,4.20348569 C33.4371155,3.50938424 32.8344956,3.0017907 32.1296041,3 L30.4956625,3 C29.7871896,3 29.18097,3.50938424 29.0572283,4.20706709 L28.7218309,6.10823563 C27.8949883,6.33064011 27.1004701,6.6588518 26.357928,7.08572626 L24.7831713,5.97907591 C24.2020674,5.57193584 23.4110846,5.6418832 22.9106998,6.14587698 L21.771771,7.28480578 L21.771771,7.28301049 C21.2695496,7.78702264 21.2014113,8.57616875 21.6103512,9.15727267 L22.7170016,10.7374015 C22.2865457,11.4781529 21.9547159,12.272717 21.7305574,13.1013043 L19.8293889,13.4367018 C19.1317061,13.558662 18.6223218,14.1648724 18.6205311,14.8733453 L18.6205311,16.4857526 C18.6223264,17.1960162 19.1334968,17.8022358 19.8329703,17.9223961 L19.8328647,17.9224007 Z M16.1059205,47.9969154 L7,39.1260821 L13.5195122,32.6478937 C14.8449489,31.3332012 16.5129596,30.416686 18.3332713,30.0041831 C20.1537207,29.593457 22.0531445,29.702864 23.8146387,30.3198507 L25.2423288,30.8202355 L34.0576055,30.8202355 C34.8073104,30.8202355 35.5247368,31.1251406 36.0448652,31.6649851 C36.5632029,32.2030664 36.84122,32.931237 36.812523,33.6809418 C36.7264318,35.2090486 35.4493898,36.3964181 33.9194923,36.3713024 L28.6497944,36.3713024 C28.0525283,36.3713024 27.5700504,36.8537803 27.5700504,37.4510464 C27.5700504,38.0465218 28.0525283,38.5289997 28.6497944,38.5289997 L33.9392359,38.5289997 C36.6188064,38.5307904 38.8338059,36.4394866 38.9844081,33.7634516 L38.9844081,33.695295 L43.8789781,28.18546 C44.9138628,26.9891371 46.7038245,26.8187455 47.9467974,27.7944638 C48.5512263,28.2912672 48.9278694,29.0104843 48.9906356,29.7889322 C49.053411,30.5691248 48.7987235,31.340364 48.2821627,31.92684 L38.5109296,43.097112 C37.2106086,44.5911487 35.327347,45.4484786 33.3454594,45.4484786 L18.6525662,45.4484786 L16.1059205,47.9969154 Z" id="Page-1"></path>
                    </g>
                </g>
            </g>
        </g>
    </g>
</svg>