<?xml version="1.0" encoding="UTF-8"?>
<svg width="71px" height="67px" viewBox="0 0 71 67" version="1.1" xmlns="http://www.w3.org/2000/svg" xmlns:xlink="http://www.w3.org/1999/xlink">
    <!-- Generator: Sketch 57.1 (83088) - https://sketch.com -->
    <title>Group 3</title>
    <desc>Created with Sketch.</desc>
    <g id="Page-1" stroke="none" stroke-width="1" fill="none" fill-rule="evenodd">
        <g id="services" transform="translate(-554.000000, -605.000000)" stroke="#F31000" stroke-width="2">
            <g id="Group-7" transform="translate(554.000000, 605.000000)">
                <path d="M45.6405927,47.8889558 L45.6405927,44.2954987 L46.5996323,44.2561831 C52.1435385,44.028912 57.3885157,41.681799 61.2392409,37.7183016 C61.6307146,37.2924857 61.8302426,36.7258067 61.7928638,36.1549352 C61.7496724,35.5623308 61.4625323,35.0119851 60.9964996,34.6332024 C58.1423839,32.2887934 56.056381,29.249615 54.6137336,25.8037311 C53.6656117,23.5390628 53.1301779,21.4618443 52.8683791,19.7553245 C52.7502051,18.9576202 52.6542026,18.422379 52.5219928,17.8930588 C50.1320885,7.67244372 44.0027731,3.44308323 35.7310535,3.34602991 C27.4371237,3.44322647 21.3016524,7.67271226 18.8909085,17.8952076 C18.7615789,18.4428409 18.6730474,18.9424077 18.5494851,19.7593283 C18.29394,21.4374239 17.7552209,23.5243797 16.806484,25.7896038 C15.3628311,29.2364999 13.2762803,32.2803862 10.4236792,34.631793 C9.96914311,35.0068462 9.68743868,35.553237 9.64601339,36.1404401 C9.60491573,36.7192266 9.80497935,37.2893419 10.1810349,37.6987486 C14.0459464,41.6821683 19.292516,44.0317388 24.8399792,44.2639927 L25.7981492,44.3041081 L25.7981492,47.9530454 L25.0271386,48.1344179 C14.8302167,50.5331416 7.4141204,55.2955098 7.41411858,62.9642072 C7.41559981,63.7419097 8.0473516,64.3736504 8.82317413,64.3751656 L62.5890033,64.3751674 C63.3667064,64.3736858 63.9984471,63.7419342 63.9999652,62.9636592 C64.0187749,55.2943731 56.6101109,50.5329708 46.3341924,48.1126976 L45.6405927,47.8889558 Z M41.0009639,45.0756819 L40.8149707,45.0756819 L40.8149707,45.9491071 C40.8289913,45.9516152 40.8430518,45.9540209 40.8571513,45.9563234 L41.0009639,45.0756819 Z M30.4612439,45.0681025 L30.384602,45.0681025 L30.5313,45.9508205 C30.5322871,45.9506564 30.5332741,45.9504919 30.5342608,45.9503268 L30.4612439,45.0681025 Z M25.1306969,31.6625592 C25.0852289,31.6322014 25.0398696,31.6016606 24.9946203,31.5709372 L24.5405091,31.6994518 L24.4724512,31.7966968 L25.1363766,31.7634411 L25.1315074,31.6662299 C25.1312388,31.6650075 25.1309687,31.663784 25.1306969,31.6625592 Z M37.6125621,17.6672166 L37.6110385,17.6661402 L37.6100292,17.6666125 L37.6100292,18.6654273 L37.6125621,18.6654273 L37.6125621,17.6672166 Z M41.2681826,43.9969537 C41.4282516,44.0187275 41.5767866,44.0376916 41.9401767,44.0835511 L42.8149707,44.1939493 L42.8149707,45.0756819 L42.8149505,47.3746815 C42.8090332,48.3055912 43.1721768,49.2024873 43.8240061,49.8661284 L44.4169734,50.469841 L43.9196858,51.1545191 C42.0058599,53.7895228 38.9494573,55.3473774 35.6938701,55.3473774 C32.4372528,55.3473774 29.3782374,53.7885885 27.4676216,51.1539226 L26.9719638,50.4704295 L27.562685,49.8671983 C28.2130488,49.2030613 28.5767226,48.3048257 28.5727696,47.3683252 L28.5727696,44.0681025 L29.5727696,44.0681025 C29.6688521,44.0681025 29.7685449,44.0545795 30.0502747,44.0048018 C30.1250162,43.991615 30.1250162,43.991615 30.2054897,43.977957 L30.3698925,44.9643502 L30.3698925,45.9643502 L30.3673596,45.9643502 L30.2034191,43.97788 C30.5899093,43.9136496 30.8704593,43.5836294 30.8705167,43.2062356 C30.8670813,42.8856137 30.6803063,42.5987628 30.3838436,42.4638894 C27.6619613,41.2086637 25.4756401,39.0194869 24.2186556,36.2936381 L22.9576611,33.5590935 L25.6039576,34.996089 C28.0537716,36.3263903 30.727789,37.1972733 33.4931423,37.5659498 L33.9264906,37.6237237 L34.1783589,37.9810624 C34.3967268,38.2908723 34.7539587,38.4769358 35.1298207,38.478292 L35.9522079,38.478292 C36.60445,38.478292 37.1334937,37.9492483 37.1334937,37.2970062 C37.1334937,36.6456047 36.6052908,36.1182468 35.9522079,36.1182468 L35.1829406,36.1182468 C34.8248217,36.1182468 34.4877637,36.2834872 34.2663662,36.5677703 L33.9057424,37.0308253 L33.3256266,36.941746 C29.8294593,36.4048943 26.5018192,35.0694924 23.6021983,33.0401642 L23.1755836,32.7415937 L23.1755836,32.2208784 C23.1755836,32.107256 23.1736488,32.0795223 23.1754186,32.0857758 L23.1445516,31.9767061 L22.7397057,23.894253 L23.6828958,23.79659 C29.2841201,23.216609 33.9344437,21.1353552 36.7932693,17.0884496 L37.0921018,16.6654273 L38.2486947,16.6654273 L38.5183051,17.2415999 C40.3341312,21.1221227 43.7431121,24.0287723 47.862877,25.2091251 L48.6261838,25.4278199 L48.586179,26.2208295 L48.2990944,31.9080788 C48.1425498,34.1600692 47.3822234,36.3267866 46.0973594,38.1867474 C44.8142281,40.0441997 43.0551845,41.5209886 40.999657,42.4660385 C40.706568,42.5993642 40.5185774,42.8871095 40.5152168,43.198391 C40.5140978,43.5874284 40.7958692,43.9198229 41.1794901,43.9824699 L41.2681826,43.9969537 Z" id="Page-1"></path>
            </g>
        </g>
    </g>
</svg>