<svg width="16" height="14" viewBox="0 0 16 14" fill="none" xmlns="http://www.w3.org/2000/svg">
<path fill-rule="evenodd" clip-rule="evenodd" d="M1 0C0.447715 0 0 0.447715 0 1C0 1.55228 0.447715 2 1 2H15C15.5523 2 16 1.55228 16 1C16 0.447715 15.5523 0 15 0H1ZM1 4C0.447715 4 0 4.44772 0 5C0 5.55228 0.447715 6 1 6H15C15.5523 6 16 5.55228 16 5C16 4.44772 15.5523 4 15 4H1ZM0 9C0 8.44771 0.447715 8 1 8H15C15.5523 8 16 8.44771 16 9C16 9.55229 15.5523 10 15 10H1C0.447715 10 0 9.55229 0 9ZM1 12C0.447715 12 0 12.4477 0 13C0 13.5523 0.447715 14 1 14H15C15.5523 14 16 13.5523 16 13C16 12.4477 15.5523 12 15 12H1Z" fill="white"/>
</svg>
